HIERARCHY
ROOT newVegas:Hips
{
	OFFSET 0.000000 96.479958 0.000000
	CHANNELS 6 Xposition Yposition Zposition Xrotation Yrotation Zrotation
	JOINT newVegas:Pelvis
	{
		OFFSET 0.000000 0.000000 0.000000
		CHANNELS 3 Xrotation Yrotation Zrotation
		JOINT newVegas:LeftUpLeg
		{
			OFFSET 18.735201 -5.666702 -4.541200
			CHANNELS 3 Xrotation Yrotation Zrotation
			JOINT newVegas:LeftLeg
			{
				OFFSET -0.021200 -31.938179 0.493100
				CHANNELS 3 Xrotation Yrotation Zrotation
				JOINT newVegas:LeftFoot
				{
					OFFSET 0.021200 -31.938179 -4.336299
					CHANNELS 3 Xrotation Yrotation Zrotation
					JOINT newVegas:LeftToeBase
					{
						OFFSET 0.943001 -26.722000 15.023500
						CHANNELS 3 Xrotation Yrotation Zrotation
						End Site
						{
							OFFSET 0.000000 30.670183 0.000000
						}
					}
				}
				JOINT newVegas:Left_PantLeg
				{
					OFFSET 0.663870 -9.044666 -1.108900
					CHANNELS 3 Xrotation Yrotation Zrotation
					End Site
					{
						OFFSET 1.415995 20.635357 0.000000
					}
				}
			}
		}
		JOINT newVegas:RightUpLeg
		{
			OFFSET -18.735201 -5.666702 -4.541200
			CHANNELS 3 Xrotation Yrotation Zrotation
			JOINT newVegas:RightLeg
			{
				OFFSET 0.018946 -31.938133 0.493100
				CHANNELS 3 Xrotation Yrotation Zrotation
				JOINT newVegas:RightFoot
				{
					OFFSET -0.018946 -31.938126 -4.336299
					CHANNELS 3 Xrotation Yrotation Zrotation
					JOINT newVegas:RightToeBase
					{
						OFFSET -0.943001 -26.722004 15.023500
						CHANNELS 3 Xrotation Yrotation Zrotation
						End Site
						{
							OFFSET 0.000000 30.670187 0.000000
						}
					}
				}
				JOINT newVegas:Right_PantLeg
				{
					OFFSET -0.661674 -9.044716 -1.108900
					CHANNELS 3 Xrotation Yrotation Zrotation
					End Site
					{
						OFFSET -1.415958 20.635269 0.000000
					}
				}
			}
		}
	}
	JOINT newVegas:Spine
	{
		OFFSET 0.000000 10.199997 -0.299500
		CHANNELS 3 Xrotation Yrotation Zrotation
		JOINT newVegas:Spine1
		{
			OFFSET 0.000000 11.900002 -1.516600
			CHANNELS 3 Xrotation Yrotation Zrotation
			JOINT newVegas:Spine2
			{
				OFFSET 0.000000 13.600006 -2.842500
				CHANNELS 3 Xrotation Yrotation Zrotation
				JOINT newVegas:Neck
				{
					OFFSET 0.000000 9.624100 -2.890100
					CHANNELS 3 Xrotation Yrotation Zrotation
					JOINT newVegas:Head
					{
						OFFSET 0.000000 14.068802 -1.351900
						CHANNELS 3 Xrotation Yrotation Zrotation
						JOINT newVegas:Hair_Back
						{
							OFFSET 0.000000 3.231903 -17.524799
							CHANNELS 3 Xrotation Yrotation Zrotation
							End Site
							{
								OFFSET 0.000000 19.849884 0.000000
							}
						}
						JOINT newVegas:Hair_Front
						{
							OFFSET 0.000000 31.260406 4.573800
							CHANNELS 3 Xrotation Yrotation Zrotation
							JOINT newVegas:Hair_Front1
							{
								OFFSET 0.000000 2.284103 11.993300
								CHANNELS 3 Xrotation Yrotation Zrotation
								JOINT newVegas:Hair_Front2
								{
									OFFSET 0.000000 2.284103 11.993300
									CHANNELS 3 Xrotation Yrotation Zrotation
									End Site
									{
										OFFSET 0.000000 12.208862 0.000000
									}
								}
							}
						}
						JOINT newVegas:Jowel
						{
							OFFSET 0.000000 -7.458206 6.864100
							CHANNELS 3 Xrotation Yrotation Zrotation
							End Site
							{
								OFFSET 0.000000 19.849884 0.000000
							}
						}
					}
				}
				JOINT newVegas:LeftShoulder
				{
					OFFSET 15.263000 10.923401 -0.547700
					CHANNELS 3 Xrotation Yrotation Zrotation
					JOINT newVegas:LeftArm
					{
						OFFSET 25.438599 -2.830597 -13.032500
						CHANNELS 3 Xrotation Yrotation Zrotation
						JOINT newVegas:LeftForeArm
						{
							OFFSET 29.960503 0.000000 0.000000
							CHANNELS 3 Xrotation Yrotation Zrotation
							JOINT newVegas:LeftHand
							{
								OFFSET 27.849251 0.000000 0.000000
								CHANNELS 3 Xrotation Yrotation Zrotation
								JOINT newVegas:LeftHandThumb1
								{
									OFFSET 4.487587 -3.305161 6.305391
									CHANNELS 3 Xrotation Yrotation Zrotation
									JOINT newVegas:LeftHandThumb2
									{
										OFFSET 5.480453 -3.164139 3.164143
										CHANNELS 3 Xrotation Yrotation Zrotation
										JOINT newVegas:LeftHandThumb3
										{
											OFFSET 5.159721 -2.978973 2.978967
											CHANNELS 3 Xrotation Yrotation Zrotation
											End Site
											{
												OFFSET 2.494507 5.926697 1.738678
											}
										}
									}
								}
								JOINT newVegas:LeftHandIndex1
								{
									OFFSET 18.578728 -0.527832 5.208049
									CHANNELS 3 Xrotation Yrotation Zrotation
									JOINT newVegas:LeftHandIndex2
									{
										OFFSET 3.192009 0.000000 0.000000
										CHANNELS 3 Xrotation Yrotation Zrotation
										JOINT newVegas:LeftHandIndex3
										{
											OFFSET 3.835129 0.000000 0.000000
											CHANNELS 3 Xrotation Yrotation Zrotation
											End Site
											{
												OFFSET -0.034599 3.816971 0.371180
											}
										}
									}
								}
								JOINT newVegas:LeftHandMiddle1
								{
									OFFSET 18.476105 0.000000 0.000000
									CHANNELS 3 Xrotation Yrotation Zrotation
									JOINT newVegas:LeftHandMiddle2
									{
										OFFSET 3.324875 0.000000 0.000000
										CHANNELS 3 Xrotation Yrotation Zrotation
										JOINT newVegas:LeftHandMiddle3
										{
											OFFSET 4.596550 0.000000 0.000000
											CHANNELS 3 Xrotation Yrotation Zrotation
											End Site
											{
												OFFSET 0.057701 4.578827 0.399218
											}
										}
									}
								}
								JOINT newVegas:LeftHandRing1
								{
									OFFSET 17.732719 0.121887 -4.201567
									CHANNELS 3 Xrotation Yrotation Zrotation
									JOINT newVegas:LeftHandRing2
									{
										OFFSET 2.733170 0.000000 0.000000
										CHANNELS 3 Xrotation Yrotation Zrotation
										JOINT newVegas:LeftHandRing3
										{
											OFFSET 3.178268 0.000000 0.000000
											CHANNELS 3 Xrotation Yrotation Zrotation
											End Site
											{
												OFFSET 0.119102 3.170624 0.185394
											}
										}
									}
								}
								JOINT newVegas:LeftHandPinky1
								{
									OFFSET 15.989624 -0.606689 -7.535461
									CHANNELS 3 Xrotation Yrotation Zrotation
									JOINT newVegas:LeftHandPinky2
									{
										OFFSET 2.538986 0.000000 0.000000
										CHANNELS 3 Xrotation Yrotation Zrotation
										JOINT newVegas:LeftHandPinky3
										{
											OFFSET 2.593102 0.000000 0.000000
											CHANNELS 3 Xrotation Yrotation Zrotation
											End Site
											{
												OFFSET -0.150902 2.584198 0.152708
											}
										}
									}
								}
							}
							JOINT newVegas:Left_Sleeve
							{
								OFFSET 0.267448 -0.649796 0.577675
								CHANNELS 3 Xrotation Yrotation Zrotation
								End Site
								{
									OFFSET 0.000000 15.991241 0.000000
								}
							}
							JOINT newVegas:Left_CapeC
							{
								OFFSET 15.715958 -8.608795 -6.935905
								CHANNELS 3 Xrotation Yrotation Zrotation
								JOINT newVegas:Left_CapeC1
								{
									OFFSET 0.000000 -8.688499 0.000000
									CHANNELS 3 Xrotation Yrotation Zrotation
									End Site
									{
										OFFSET 0.000000 8.688499 0.000000
									}
								}
							}
						}
						JOINT newVegas:Left_CapeB
						{
							OFFSET 26.118385 -8.608795 -7.079235
							CHANNELS 3 Xrotation Yrotation Zrotation
							JOINT newVegas:Left_CapeB1
							{
								OFFSET 0.000000 -8.688499 0.000000
								CHANNELS 3 Xrotation Yrotation Zrotation
								End Site
								{
									OFFSET 0.000000 8.688499 0.000000
								}
							}
						}
						JOINT newVegas:Left_CapeA
						{
							OFFSET 5.115639 -8.608795 -10.395809
							CHANNELS 3 Xrotation Yrotation Zrotation
							JOINT newVegas:Left_CapeA1
							{
								OFFSET 0.000000 -8.688499 0.000000
								CHANNELS 3 Xrotation Yrotation Zrotation
								End Site
								{
									OFFSET 0.000000 8.688499 0.000000
								}
							}
						}
					}
				}
				JOINT newVegas:RightShoulder
				{
					OFFSET -15.263000 10.923401 -0.547700
					CHANNELS 3 Xrotation Yrotation Zrotation
					JOINT newVegas:RightArm
					{
						OFFSET -25.438599 -2.830597 -13.032500
						CHANNELS 3 Xrotation Yrotation Zrotation
						JOINT newVegas:RightForeArm
						{
							OFFSET -29.960503 0.000000 0.000000
							CHANNELS 3 Xrotation Yrotation Zrotation
							JOINT newVegas:RightHand
							{
								OFFSET -27.849251 0.000000 0.000000
								CHANNELS 3 Xrotation Yrotation Zrotation
								JOINT newVegas:RightHandThumb1
								{
									OFFSET -4.487587 -3.305161 6.305391
									CHANNELS 3 Xrotation Yrotation Zrotation
									JOINT newVegas:RightHandThumb2
									{
										OFFSET -5.480453 -3.164139 3.164143
										CHANNELS 3 Xrotation Yrotation Zrotation
										JOINT newVegas:RightHandThumb3
										{
											OFFSET -5.159721 -2.978973 2.978967
											CHANNELS 3 Xrotation Yrotation Zrotation
											End Site
											{
												OFFSET -2.494507 5.926697 1.738678
											}
										}
									}
								}
								JOINT newVegas:RightHandIndex1
								{
									OFFSET -18.578728 -0.527832 5.208049
									CHANNELS 3 Xrotation Yrotation Zrotation
									JOINT newVegas:RightHandIndex2
									{
										OFFSET -3.192009 0.000000 0.000000
										CHANNELS 3 Xrotation Yrotation Zrotation
										JOINT newVegas:RightHandIndex3
										{
											OFFSET -3.835129 0.000000 0.000000
											CHANNELS 3 Xrotation Yrotation Zrotation
											End Site
											{
												OFFSET 0.034599 3.816971 0.371180
											}
										}
									}
								}
								JOINT newVegas:RightHandMiddle1
								{
									OFFSET -18.476105 0.000000 0.000000
									CHANNELS 3 Xrotation Yrotation Zrotation
									JOINT newVegas:RightHandMiddle2
									{
										OFFSET -3.324875 0.000000 0.000000
										CHANNELS 3 Xrotation Yrotation Zrotation
										JOINT newVegas:RightHandMiddle3
										{
											OFFSET -4.596550 0.000000 0.000000
											CHANNELS 3 Xrotation Yrotation Zrotation
											End Site
											{
												OFFSET -0.057701 4.578827 0.399218
											}
										}
									}
								}
								JOINT newVegas:RightHandRing1
								{
									OFFSET -17.732719 0.121887 -4.201567
									CHANNELS 3 Xrotation Yrotation Zrotation
									JOINT newVegas:RightHandRing2
									{
										OFFSET -2.733170 0.000000 0.000000
										CHANNELS 3 Xrotation Yrotation Zrotation
										JOINT newVegas:RightHandRing3
										{
											OFFSET -3.178268 0.000000 0.000000
											CHANNELS 3 Xrotation Yrotation Zrotation
											End Site
											{
												OFFSET -0.119102 3.170624 0.185394
											}
										}
									}
								}
								JOINT newVegas:RightHandPinky1
								{
									OFFSET -15.989624 -0.606689 -7.535461
									CHANNELS 3 Xrotation Yrotation Zrotation
									JOINT newVegas:RightHandPinky2
									{
										OFFSET -2.538986 0.000000 0.000000
										CHANNELS 3 Xrotation Yrotation Zrotation
										JOINT newVegas:RightHandPinky3
										{
											OFFSET -2.593102 0.000000 0.000000
											CHANNELS 3 Xrotation Yrotation Zrotation
											End Site
											{
												OFFSET 0.150902 2.584198 0.152708
											}
										}
									}
								}
							}
							JOINT newVegas:Right_CapeC
							{
								OFFSET -15.715958 -8.608795 -6.935905
								CHANNELS 3 Xrotation Yrotation Zrotation
								JOINT newVegas:Right_CapeC1
								{
									OFFSET 0.000000 -8.688499 0.000000
									CHANNELS 3 Xrotation Yrotation Zrotation
									End Site
									{
										OFFSET 0.000000 8.688499 0.000000
									}
								}
							}
							JOINT newVegas:Right_Sleeve
							{
								OFFSET -0.267448 -0.649994 0.577675
								CHANNELS 3 Xrotation Yrotation Zrotation
								End Site
								{
									OFFSET 0.000000 15.991302 0.000000
								}
							}
						}
						JOINT newVegas:Right_CapeA
						{
							OFFSET -5.115540 -8.608795 -10.395824
							CHANNELS 3 Xrotation Yrotation Zrotation
							JOINT newVegas:Right_CapeA1
							{
								OFFSET 0.000000 -8.688499 0.000000
								CHANNELS 3 Xrotation Yrotation Zrotation
								End Site
								{
									OFFSET 0.000000 8.688499 0.000000
								}
							}
						}
						JOINT newVegas:Right_CapeB
						{
							OFFSET -26.118187 -8.608795 -7.079266
							CHANNELS 3 Xrotation Yrotation Zrotation
							JOINT newVegas:Right_CapeB1
							{
								OFFSET 0.000000 -8.688499 0.000000
								CHANNELS 3 Xrotation Yrotation Zrotation
								End Site
								{
									OFFSET 0.000000 8.688499 0.000000
								}
							}
						}
					}
				}
				JOINT newVegas:Left_Collar
				{
					OFFSET 18.625099 8.655502 8.828100
					CHANNELS 3 Xrotation Yrotation Zrotation
					JOINT newVegas:Left_Collar1
					{
						OFFSET 14.783401 10.540405 -1.259500
						CHANNELS 3 Xrotation Yrotation Zrotation
						End Site
						{
							OFFSET 0.000000 18.199875 0.000000
						}
					}
				}
				JOINT newVegas:Collar_Back
				{
					OFFSET 0.000000 15.630707 -20.132601
					CHANNELS 3 Xrotation Yrotation Zrotation
					End Site
					{
						OFFSET 0.000000 22.523010 0.000000
					}
				}
				JOINT newVegas:Left_Peck
				{
					OFFSET 17.239599 -5.132599 25.482599
					CHANNELS 3 Xrotation Yrotation Zrotation
					End Site
					{
						OFFSET 0.000000 22.523010 0.000000
					}
				}
				JOINT newVegas:Right_Peck
				{
					OFFSET -17.239599 -5.132202 25.482599
					CHANNELS 3 Xrotation Yrotation Zrotation
					End Site
					{
						OFFSET 0.000000 22.523010 0.000000
					}
				}
				JOINT newVegas:Right_Collar
				{
					OFFSET -18.625099 8.655792 8.828100
					CHANNELS 3 Xrotation Yrotation Zrotation
					JOINT newVegas:Right_Collar1
					{
						OFFSET -14.783401 10.539993 -1.259500
						CHANNELS 3 Xrotation Yrotation Zrotation
						End Site
						{
							OFFSET 0.000000 18.199631 0.000000
						}
					}
				}
			}
		}
		JOINT newVegas:Belly
		{
			OFFSET 0.000000 -6.540398 9.014299
			CHANNELS 3 Xrotation Yrotation Zrotation
			End Site
			{
				OFFSET 0.000000 11.566666 0.000000
			}
		}
	}
	JOINT newVegas:ElvisFacialAnim_Joint
	{
		OFFSET 1.000000 -95.330101 -8.825800
		CHANNELS 3 Xrotation Yrotation Zrotation
		End Site
		{
			OFFSET 0.000000 35.315800 0.000000
		}
	}
}
MOTION
Frames: 4
Frame Time: 0.033333
-4.259974 83.888489 81.477753 -15.760383 -8.578616 -4.527466 -0.000000 0.000001 0.000000 -19.651132 8.173699 33.327140 60.000364 -0.606981 5.353822 -16.246059 4.275939 -25.803999 -0.000000 0.000001 0.000000 -0.000002 0.000001 0.000001 -27.438574 -4.302156 -11.898440 66.937664 -4.711144 -5.512784 -17.445505 -1.776810 11.750517 -0.000000 -0.000002 0.000000 0.000001 0.000001 -0.000001 23.531807 -4.068096 1.433396 8.032545 -1.307412 -2.201258 8.011857 -1.459816 -2.198741 -1.710250 1.484901 -1.349796 -1.710240 1.484903 -1.349795 0.000001 -0.000000 0.000000 -1.710238 1.484899 -1.349796 -1.710233 1.484895 -1.349796 -0.000001 -0.000000 -0.000000 0.000001 -0.000000 -0.000000 5.220379 -17.604217 -7.757699 -42.590666 14.821524 -32.125764 -0.003565 -90.192621 -0.003468 -39.790148 -15.022697 -0.002046 -1.558094 1.626168 6.369615 4.791154 18.339183 1.493182 0.000002 -0.000001 -0.000001 0.042505 0.765469 -6.356324 0.064630 0.943107 -7.840114 -0.000000 0.000000 0.000001 0.042285 0.763540 -6.340338 0.064898 0.945016 -7.856107 -0.000000 -0.000001 0.000001 0.588788 5.904102 -5.764094 0.064634 0.943118 -7.840119 -0.000002 -0.000001 0.000002 1.400960 14.514681 -4.841873 0.055050 -3.111745 -8.346110 0.000002 -0.000003 -0.000001 -0.000000 0.000000 0.000000 -0.000000 0.000000 0.000000 -0.000001 0.000001 0.000000 0.000000 0.000002 0.000001 0.000000 0.000001 -0.000003 0.000000 0.000002 0.000001 0.000000 0.000002 0.000000 9.439192 21.043109 -7.245149 -38.520023 -32.046216 36.411008 -0.000200 92.316004 0.000180 -17.945176 -5.069589 -7.428274 -1.851778 -2.156721 -6.528539 5.359349 -16.573401 -0.759984 -0.000001 -0.000003 0.000001 0.030822 -0.655391 5.386122 0.040952 -0.755129 6.208867 -0.000003 0.000000 -0.000001 0.030818 -0.655392 5.386116 0.040967 -0.755129 6.208861 -0.000003 -0.000001 -0.000000 0.489258 -5.801838 4.781876 0.040966 -0.755133 6.208868 0.000001 -0.000001 -0.000001 0.855357 -10.380180 4.273437 0.040952 -0.755140 6.208855 -0.000004 0.000002 0.000000 0.000002 -0.000000 -0.000000 0.000001 -0.000001 -0.000002 0.000002 -0.000001 -0.000000 -0.000001 0.000003 -0.000002 0.000000 0.000003 -0.000002 -0.000001 0.000003 -0.000002 0.000000 0.000003 -0.000000 0.000001 0.000001 -0.000000 0.000001 0.000001 -0.000000 0.000001 0.000001 -0.000000 0.000001 0.000001 -0.000000 0.000001 0.000001 -0.000000 0.000001 0.000001 -0.000000 0.000001 0.000001 -0.000000 -0.000001 0.000001 0.000000 -0.000000 0.000001 0.000000 
-4.721598 84.128586 81.580452 -15.520063 -10.436077 -4.456158 -0.000000 0.000000 -0.000000 -17.811747 9.627510 33.260706 57.913181 0.696206 5.196109 -15.914151 4.493492 -26.852365 -0.000000 0.000001 -0.000000 0.000000 0.000000 0.000001 -27.959943 -3.284601 -11.346221 66.618045 -3.791427 -5.166210 -17.450860 -1.721093 10.968893 0.000000 0.000001 -0.000000 -0.000002 0.000000 -0.000001 23.365684 -4.378710 2.600101 7.895334 -1.456725 -1.798229 7.872679 -1.602884 -1.796400 -0.696847 1.495276 -0.923275 -0.696861 1.495293 -0.923279 -0.000001 0.000001 0.000000 -0.696851 1.495273 -0.923275 -0.696842 1.495274 -0.923275 -0.000003 0.000001 0.000000 -0.000001 0.000001 0.000000 4.849864 -16.966513 -10.120545 -38.170813 17.207811 -33.115284 0.001519 -88.113798 0.001485 -40.030205 -14.798284 0.159504 -1.556169 1.553644 6.332705 4.798330 18.434088 1.499612 0.000002 0.000000 -0.000003 0.042718 0.767263 -6.371224 0.066925 0.959740 -7.979324 0.000000 -0.000000 -0.000001 0.042497 0.765337 -6.355235 0.067204 0.961657 -7.995317 -0.000000 -0.000001 0.000001 0.590346 5.905752 -5.779082 0.066929 0.959739 -7.979307 -0.000000 -0.000002 -0.000002 1.404832 14.516116 -4.857314 0.057517 -3.095165 -8.485108 0.000001 -0.000002 0.000001 0.000000 0.000000 -0.000000 0.000000 0.000000 -0.000000 -0.000001 0.000000 -0.000000 0.000000 0.000002 -0.000002 0.000000 0.000002 -0.000005 0.000000 0.000002 -0.000002 0.000001 0.000002 -0.000002 9.838424 22.314863 -6.373015 -42.184225 -25.121108 35.502565 -0.000544 88.547221 0.000227 -15.922851 -5.166072 -5.401943 -1.851010 -2.097421 -6.514219 5.368571 -16.680227 -0.766773 0.000001 -0.000000 -0.000001 0.030771 -0.654894 5.382052 0.043926 -0.781813 6.429080 0.000002 -0.000001 -0.000000 0.030777 -0.654891 5.382044 0.043916 -0.781809 6.429091 -0.000003 -0.000000 -0.000001 0.488834 -5.801370 4.777779 0.043911 -0.781815 6.429078 -0.000003 0.000002 0.000001 0.854587 -10.379751 4.269296 0.043911 -0.781821 6.429082 -0.000003 -0.000000 0.000003 0.000001 -0.000001 -0.000002 -0.000001 0.000000 0.000000 0.000001 -0.000001 -0.000002 0.000000 0.000002 -0.000003 0.000000 0.000001 -0.000001 0.000000 0.000002 -0.000003 0.000000 0.000001 0.000001 -0.000001 0.000000 -0.000000 -0.000001 0.000000 -0.000000 -0.000001 0.000000 -0.000000 -0.000001 0.000000 -0.000000 -0.000001 0.000000 -0.000000 -0.000001 0.000000 -0.000000 -0.000001 0.000000 -0.000000 -0.000000 0.000001 -0.000000 -0.000000 0.000000 -0.000000 
-4.950455 84.502029 81.737488 -15.540787 -12.462396 -4.418815 -0.000001 0.000000 0.000001 -15.164919 11.615676 32.614485 55.334815 2.159218 5.087890 -16.327052 4.784818 -27.444416 -0.000000 -0.000000 0.000000 -0.000002 0.000000 0.000000 -28.135132 -2.482398 -10.802831 65.835449 -2.765691 -5.344251 -17.187865 -1.632931 10.349715 0.000000 0.000002 0.000000 0.000004 -0.000001 0.000000 23.087370 -4.531665 3.459683 7.832242 -1.535781 -1.516027 7.809261 -1.678500 -1.514911 0.237078 1.445878 -0.313961 0.237080 1.445879 -0.313962 -0.000001 -0.000001 -0.000000 0.237078 1.445887 -0.313963 0.237100 1.445871 -0.313962 -0.000002 -0.000001 0.000000 -0.000001 -0.000001 0.000000 4.837494 -17.096867 -10.581811 -33.563939 19.552962 -34.291859 0.000227 -85.762799 0.000209 -40.417750 -14.643494 0.261923 -1.554263 1.481442 6.296201 4.805430 18.528942 1.506095 0.000000 -0.000000 -0.000005 0.042900 0.769014 -6.385843 0.069302 0.976464 -8.119279 0.000000 -0.000001 0.000001 0.042686 0.767099 -6.369851 0.069572 0.978358 -8.135274 0.000001 -0.000000 0.000000 0.591863 5.907365 -5.793783 0.069302 0.976481 -8.119287 -0.000001 0.000003 0.000004 1.408633 14.517519 -4.872454 0.060018 -3.078435 -8.624915 -0.000001 -0.000002 0.000000 0.000001 0.000000 -0.000001 0.000001 0.000000 -0.000001 0.000001 -0.000000 -0.000001 -0.000001 -0.000001 -0.000003 0.000000 -0.000000 -0.000005 -0.000001 -0.000001 -0.000003 0.000000 -0.000001 -0.000003 10.208957 23.488240 -5.591806 -44.447828 -19.516026 35.873567 0.000303 86.134621 -0.000307 -16.852279 -2.813521 -3.954378 -1.850214 -2.038059 -6.499638 5.377697 -16.786674 -0.773571 -0.000002 -0.000004 0.000001 0.030737 -0.654439 5.378261 0.046946 -0.808276 6.647770 -0.000002 -0.000001 -0.000001 0.030736 -0.654443 5.378253 0.046949 -0.808272 6.647768 0.000001 0.000000 0.000000 0.488458 -5.800944 4.773949 0.046936 -0.808271 6.647779 0.000001 -0.000001 -0.000001 0.853897 -10.379350 4.265434 0.046953 -0.808281 6.647768 -0.000005 0.000002 -0.000000 0.000002 0.000001 0.000001 0.000002 0.000000 0.000000 0.000002 0.000001 0.000001 -0.000000 -0.000001 0.000002 -0.000001 -0.000001 0.000002 -0.000000 -0.000001 0.000002 -0.000001 -0.000001 0.000004 -0.000000 0.000000 -0.000000 -0.000000 0.000000 -0.000000 -0.000000 0.000000 -0.000000 -0.000000 0.000000 -0.000000 -0.000000 0.000000 -0.000000 -0.000000 0.000000 -0.000000 -0.000000 0.000000 -0.000000 0.000001 0.000001 -0.000000 -0.000001 0.000000 0.000001 
-5.011792 84.924721 82.000107 -16.050309 -14.140787 -4.482351 -0.000000 -0.000000 0.000000 -12.201317 13.748841 31.903800 52.726574 3.189687 4.992218 -16.686668 5.038119 -27.802625 0.000000 0.000000 -0.000000 -0.000000 -0.000002 0.000001 -27.561905 -2.379155 -10.320853 64.813270 -1.777828 -6.375656 -16.963388 -1.617134 10.260663 0.000001 -0.000000 0.000000 0.000001 0.000001 0.000001 22.914267 -4.864367 4.162890 7.963542 -1.656217 -1.252801 7.939626 -1.797454 -1.252908 0.924694 1.394087 0.284000 0.924707 1.394093 0.283998 -0.000000 0.000001 -0.000001 0.924626 1.394085 0.284002 0.924780 1.394088 0.283995 -0.000000 -0.000000 -0.000000 -0.000000 0.000001 -0.000001 4.967876 -17.391277 -9.741158 -29.005553 21.696197 -35.719345 0.000120 -84.152732 0.000098 -40.873594 -14.735524 0.155306 -1.552424 1.409706 6.260137 4.812465 18.623585 1.512598 -0.000000 -0.000001 0.000000 0.043072 0.770714 -6.400158 0.071729 0.993231 -8.259764 -0.000000 0.000000 0.000000 0.042871 0.768795 -6.384148 0.071999 0.995141 -8.275756 0.000000 0.000000 -0.000001 0.593341 5.908942 -5.808180 0.071706 0.993223 -8.259778 -0.000000 -0.000001 -0.000000 1.412344 14.518887 -4.887260 0.062584 -3.061680 -8.765193 -0.000001 0.000000 0.000000 -0.000002 0.000000 -0.000000 -0.000002 0.000000 -0.000000 -0.000002 0.000000 0.000000 0.000001 -0.000001 -0.000002 0.000001 -0.000001 -0.000003 0.000001 -0.000001 -0.000002 -0.000000 0.000000 -0.000002 10.720716 24.784581 -5.131953 -45.617112 -15.538728 36.928504 -0.000242 85.097074 0.000253 -18.018249 -0.530317 -3.251916 -1.849428 -1.978732 -6.484839 5.386758 -16.892567 -0.780347 -0.000000 -0.000004 -0.000001 0.030686 -0.654006 5.374693 0.050051 -0.834516 6.864591 -0.000004 -0.000000 -0.000000 0.030695 -0.654011 5.374689 0.050038 -0.834502 6.864604 0.000000 -0.000001 -0.000000 0.488098 -5.800544 4.770380 0.050053 -0.834511 6.864571 0.000001 -0.000001 -0.000000 0.853254 -10.378984 4.261799 0.050058 -0.834510 6.864586 0.000000 0.000003 -0.000001 -0.000002 -0.000001 -0.000000 -0.000002 -0.000001 0.000000 -0.000002 -0.000001 -0.000000 -0.000001 -0.000001 0.000003 -0.000001 -0.000001 0.000001 -0.000001 -0.000001 0.000003 -0.000001 -0.000001 0.000003 -0.000001 -0.000001 0.000000 -0.000001 -0.000001 0.000000 -0.000001 -0.000001 0.000000 -0.000001 -0.000001 0.000000 -0.000001 -0.000001 0.000000 -0.000001 -0.000001 0.000000 -0.000001 -0.000001 0.000000 -0.000000 0.000002 -0.000000 -0.000000 -0.000000 0.000000 
